<mxfile host="app.diagrams.net" agent="Mozilla/5.0 (Windows NT 10.0; Win64; x64) AppleWebKit/537.36 (KHTML, like Gecko) Chrome/134.0.0.0 Safari/537.36" version="26.1.3">
  <diagram name="Page-1" id="6jEyM0XtldutdyMZV72m">
    <mxGraphModel dx="1050" dy="1674" grid="1" gridSize="10" guides="1" tooltips="1" connect="1" arrows="1" fold="1" page="1" pageScale="1" pageWidth="850" pageHeight="1100" math="0" shadow="0">
      <root>
        <mxCell id="0" />
        <mxCell id="1" parent="0" />
        <mxCell id="CoB3a_p92tAadd6meq5U-1" value="Player Manager" style="rounded=1;whiteSpace=wrap;html=1;" vertex="1" parent="1">
          <mxGeometry y="120" width="120" height="60" as="geometry" />
        </mxCell>
        <mxCell id="CoB3a_p92tAadd6meq5U-2" value="Main Menu" style="rounded=1;whiteSpace=wrap;html=1;" vertex="1" parent="1">
          <mxGeometry y="450" width="120" height="60" as="geometry" />
        </mxCell>
        <mxCell id="CoB3a_p92tAadd6meq5U-3" value="Options Menu" style="rounded=1;whiteSpace=wrap;html=1;" vertex="1" parent="1">
          <mxGeometry x="200" y="450" width="120" height="60" as="geometry" />
        </mxCell>
        <mxCell id="CoB3a_p92tAadd6meq5U-4" value="Pause Menu" style="rounded=1;whiteSpace=wrap;html=1;" vertex="1" parent="1">
          <mxGeometry x="600" y="450" width="120" height="60" as="geometry" />
        </mxCell>
        <mxCell id="CoB3a_p92tAadd6meq5U-5" value="Level UI" style="rounded=1;whiteSpace=wrap;html=1;" vertex="1" parent="1">
          <mxGeometry x="400" y="450" width="120" height="60" as="geometry" />
        </mxCell>
        <mxCell id="CoB3a_p92tAadd6meq5U-6" value="Play" style="rounded=1;whiteSpace=wrap;html=1;" vertex="1" parent="1">
          <mxGeometry x="15" y="530" width="90" height="20" as="geometry" />
        </mxCell>
        <mxCell id="CoB3a_p92tAadd6meq5U-7" value="Options" style="rounded=1;whiteSpace=wrap;html=1;" vertex="1" parent="1">
          <mxGeometry x="15" y="610" width="90" height="20" as="geometry" />
        </mxCell>
        <mxCell id="CoB3a_p92tAadd6meq5U-8" value="Quit" style="rounded=1;whiteSpace=wrap;html=1;" vertex="1" parent="1">
          <mxGeometry x="15" y="690" width="90" height="20" as="geometry" />
        </mxCell>
        <mxCell id="CoB3a_p92tAadd6meq5U-9" value="Music Volume" style="rounded=1;whiteSpace=wrap;html=1;" vertex="1" parent="1">
          <mxGeometry x="215" y="530" width="90" height="20" as="geometry" />
        </mxCell>
        <mxCell id="CoB3a_p92tAadd6meq5U-10" value="Sound Volume" style="rounded=1;whiteSpace=wrap;html=1;" vertex="1" parent="1">
          <mxGeometry x="230" y="780" width="90" height="20" as="geometry" />
        </mxCell>
        <mxCell id="CoB3a_p92tAadd6meq5U-12" value="Back" style="rounded=1;whiteSpace=wrap;html=1;" vertex="1" parent="1">
          <mxGeometry x="215" y="630" width="90" height="20" as="geometry" />
        </mxCell>
        <mxCell id="CoB3a_p92tAadd6meq5U-13" value="Pause or ESC" style="rounded=1;whiteSpace=wrap;html=1;" vertex="1" parent="1">
          <mxGeometry x="415" y="530" width="90" height="20" as="geometry" />
        </mxCell>
        <mxCell id="CoB3a_p92tAadd6meq5U-14" value="Resume" style="rounded=1;whiteSpace=wrap;html=1;" vertex="1" parent="1">
          <mxGeometry x="620" y="530" width="90" height="20" as="geometry" />
        </mxCell>
        <mxCell id="CoB3a_p92tAadd6meq5U-15" value="Options" style="rounded=1;whiteSpace=wrap;html=1;" vertex="1" parent="1">
          <mxGeometry x="620" y="600" width="90" height="20" as="geometry" />
        </mxCell>
        <mxCell id="CoB3a_p92tAadd6meq5U-16" value="Quit" style="rounded=1;whiteSpace=wrap;html=1;" vertex="1" parent="1">
          <mxGeometry x="620" y="670" width="90" height="20" as="geometry" />
        </mxCell>
        <mxCell id="CoB3a_p92tAadd6meq5U-20" value="BMAS(PlayGame)" style="rounded=0;whiteSpace=wrap;html=1;strokeColor=default;align=center;verticalAlign=middle;fontFamily=Helvetica;fontSize=12;fontColor=default;fillColor=default;" vertex="1" parent="1">
          <mxGeometry x="30" y="550" width="140" height="20" as="geometry" />
        </mxCell>
        <mxCell id="CoB3a_p92tAadd6meq5U-24" value="BMAS(LevelPause)" style="rounded=0;whiteSpace=wrap;html=1;" vertex="1" parent="1">
          <mxGeometry x="430" y="550" width="140" height="20" as="geometry" />
        </mxCell>
        <mxCell id="CoB3a_p92tAadd6meq5U-25" value="BMAS = MessageUtils.BroadcastMessageAcrossScenes" style="rounded=0;whiteSpace=wrap;html=1;align=left;" vertex="1" parent="1">
          <mxGeometry y="-110" width="360" height="30" as="geometry" />
        </mxCell>
        <mxCell id="CoB3a_p92tAadd6meq5U-26" value="Every menu has:&lt;div&gt;&lt;ul&gt;&lt;li&gt;A reference to it&#39;s canvas&lt;/li&gt;&lt;li&gt;A Show function&lt;/li&gt;&lt;ul&gt;&lt;li&gt;canvas.enabled = true&lt;/li&gt;&lt;li&gt;canvas.interactable = true&lt;/li&gt;&lt;/ul&gt;&lt;li&gt;A Hide Function&lt;/li&gt;&lt;ul&gt;&lt;li&gt;canvas.interactable = false&lt;/li&gt;&lt;li&gt;canvas.enabled = false&lt;/li&gt;&lt;/ul&gt;&lt;li&gt;An OnEnabled function that will setup UI with current settings like current volumes&lt;/li&gt;&lt;/ul&gt;&lt;/div&gt;" style="rounded=0;whiteSpace=wrap;html=1;align=left;" vertex="1" parent="1">
          <mxGeometry y="-70" width="360" height="170" as="geometry" />
        </mxCell>
        <mxCell id="CoB3a_p92tAadd6meq5U-28" value="Start()" style="shape=step;perimeter=stepPerimeter;whiteSpace=wrap;html=1;fixedSize=1;" vertex="1" parent="1">
          <mxGeometry x="240" y="200" width="120" height="20" as="geometry" />
        </mxCell>
        <mxCell id="CoB3a_p92tAadd6meq5U-31" value="Menu Manager" style="rounded=1;whiteSpace=wrap;html=1;" vertex="1" parent="1">
          <mxGeometry x="240" y="120" width="120" height="60" as="geometry" />
        </mxCell>
        <mxCell id="CoB3a_p92tAadd6meq5U-32" value="Hide()" style="rounded=0;whiteSpace=wrap;html=1;strokeColor=default;align=center;verticalAlign=middle;fontFamily=Helvetica;fontSize=12;fontColor=default;fillColor=default;" vertex="1" parent="1">
          <mxGeometry x="30" y="570" width="140" height="20" as="geometry" />
        </mxCell>
        <mxCell id="CoB3a_p92tAadd6meq5U-33" value="" style="triangle;whiteSpace=wrap;html=1;" vertex="1" parent="1">
          <mxGeometry x="305" y="525" width="20" height="30" as="geometry" />
        </mxCell>
        <mxCell id="CoB3a_p92tAadd6meq5U-35" value="" style="triangle;whiteSpace=wrap;html=1;rotation=-180;" vertex="1" parent="1">
          <mxGeometry x="195" y="525" width="20" height="30" as="geometry" />
        </mxCell>
        <mxCell id="CoB3a_p92tAadd6meq5U-36" value="Sound Volume" style="rounded=1;whiteSpace=wrap;html=1;" vertex="1" parent="1">
          <mxGeometry x="215" y="580" width="90" height="20" as="geometry" />
        </mxCell>
        <mxCell id="CoB3a_p92tAadd6meq5U-37" value="" style="triangle;whiteSpace=wrap;html=1;" vertex="1" parent="1">
          <mxGeometry x="305" y="575" width="20" height="30" as="geometry" />
        </mxCell>
        <mxCell id="CoB3a_p92tAadd6meq5U-38" value="" style="triangle;whiteSpace=wrap;html=1;rotation=-180;" vertex="1" parent="1">
          <mxGeometry x="195" y="575" width="20" height="30" as="geometry" />
        </mxCell>
        <mxCell id="CoB3a_p92tAadd6meq5U-39" value="SetMusicVolume()" style="rounded=0;whiteSpace=wrap;html=1;" vertex="1" parent="1">
          <mxGeometry x="230" y="550" width="140" height="20" as="geometry" />
        </mxCell>
        <mxCell id="CoB3a_p92tAadd6meq5U-40" value="SetSoundVolume()" style="rounded=0;whiteSpace=wrap;html=1;" vertex="1" parent="1">
          <mxGeometry x="230" y="600" width="140" height="20" as="geometry" />
        </mxCell>
        <mxCell id="CoB3a_p92tAadd6meq5U-41" value="BMAS(OptionsClosed)" style="rounded=0;whiteSpace=wrap;html=1;" vertex="1" parent="1">
          <mxGeometry x="230" y="650" width="140" height="20" as="geometry" />
        </mxCell>
        <mxCell id="CoB3a_p92tAadd6meq5U-42" value="LevelPause()" style="shape=step;perimeter=stepPerimeter;whiteSpace=wrap;html=1;fixedSize=1;" vertex="1" parent="1">
          <mxGeometry x="600" y="200" width="120" height="20" as="geometry" />
        </mxCell>
        <mxCell id="CoB3a_p92tAadd6meq5U-43" value="PlayGame()" style="shape=step;perimeter=stepPerimeter;whiteSpace=wrap;html=1;fixedSize=1;" vertex="1" parent="1">
          <mxGeometry y="200" width="120" height="20" as="geometry" />
        </mxCell>
        <mxCell id="CoB3a_p92tAadd6meq5U-44" value="LoadNextLevel()" style="rounded=0;whiteSpace=wrap;html=1;strokeColor=default;align=center;verticalAlign=middle;fontFamily=Helvetica;fontSize=12;fontColor=default;fillColor=default;" vertex="1" parent="1">
          <mxGeometry x="30" y="220" width="140" height="20" as="geometry" />
        </mxCell>
        <mxCell id="CoB3a_p92tAadd6meq5U-45" value="BMAS(EditOptions)" style="rounded=0;whiteSpace=wrap;html=1;strokeColor=default;align=center;verticalAlign=middle;fontFamily=Helvetica;fontSize=12;fontColor=default;fillColor=default;" vertex="1" parent="1">
          <mxGeometry x="30" y="630" width="140" height="20" as="geometry" />
        </mxCell>
        <mxCell id="CoB3a_p92tAadd6meq5U-46" value="Hide()" style="rounded=0;whiteSpace=wrap;html=1;strokeColor=default;align=center;verticalAlign=middle;fontFamily=Helvetica;fontSize=12;fontColor=default;fillColor=default;" vertex="1" parent="1">
          <mxGeometry x="30" y="650" width="140" height="20" as="geometry" />
        </mxCell>
        <mxCell id="CoB3a_p92tAadd6meq5U-47" value="Confirm" style="rounded=0;whiteSpace=wrap;html=1;strokeColor=default;align=center;verticalAlign=middle;fontFamily=Helvetica;fontSize=12;fontColor=default;fillColor=default;" vertex="1" parent="1">
          <mxGeometry x="30" y="710" width="140" height="20" as="geometry" />
        </mxCell>
        <mxCell id="CoB3a_p92tAadd6meq5U-48" value="Application.Quit()" style="rounded=0;whiteSpace=wrap;html=1;strokeColor=default;align=center;verticalAlign=middle;fontFamily=Helvetica;fontSize=12;fontColor=default;fillColor=default;" vertex="1" parent="1">
          <mxGeometry x="30" y="730" width="140" height="20" as="geometry" />
        </mxCell>
        <mxCell id="CoB3a_p92tAadd6meq5U-49" value="MainMenu.Show()" style="rounded=0;whiteSpace=wrap;html=1;strokeColor=default;align=center;verticalAlign=middle;fontFamily=Helvetica;fontSize=12;fontColor=default;fillColor=default;" vertex="1" parent="1">
          <mxGeometry x="270" y="220" width="140" height="20" as="geometry" />
        </mxCell>
        <mxCell id="CoB3a_p92tAadd6meq5U-50" value="LevelPaused()" style="shape=step;perimeter=stepPerimeter;whiteSpace=wrap;html=1;fixedSize=1;" vertex="1" parent="1">
          <mxGeometry x="240" y="320" width="120" height="20" as="geometry" />
        </mxCell>
        <mxCell id="CoB3a_p92tAadd6meq5U-51" value="PauseMenu.Show()" style="rounded=0;whiteSpace=wrap;html=1;strokeColor=default;align=center;verticalAlign=middle;fontFamily=Helvetica;fontSize=12;fontColor=default;fillColor=default;" vertex="1" parent="1">
          <mxGeometry x="270" y="340" width="140" height="20" as="geometry" />
        </mxCell>
        <mxCell id="CoB3a_p92tAadd6meq5U-52" value="EditOptions()" style="shape=step;perimeter=stepPerimeter;whiteSpace=wrap;html=1;fixedSize=1;" vertex="1" parent="1">
          <mxGeometry x="240" y="260" width="120" height="20" as="geometry" />
        </mxCell>
        <mxCell id="CoB3a_p92tAadd6meq5U-53" value="OptionsMenu.Show()" style="rounded=0;whiteSpace=wrap;html=1;strokeColor=default;align=center;verticalAlign=middle;fontFamily=Helvetica;fontSize=12;fontColor=default;fillColor=default;" vertex="1" parent="1">
          <mxGeometry x="270" y="280" width="140" height="20" as="geometry" />
        </mxCell>
        <mxCell id="CoB3a_p92tAadd6meq5U-54" value="BMAS(LevelQuit)" style="rounded=0;whiteSpace=wrap;html=1;" vertex="1" parent="1">
          <mxGeometry x="635" y="690" width="140" height="20" as="geometry" />
        </mxCell>
        <mxCell id="CoB3a_p92tAadd6meq5U-55" value="LevelQuit()" style="shape=step;perimeter=stepPerimeter;whiteSpace=wrap;html=1;fixedSize=1;" vertex="1" parent="1">
          <mxGeometry y="260" width="120" height="20" as="geometry" />
        </mxCell>
        <mxCell id="CoB3a_p92tAadd6meq5U-56" value="UnloadLevels()" style="rounded=0;whiteSpace=wrap;html=1;strokeColor=default;align=center;verticalAlign=middle;fontFamily=Helvetica;fontSize=12;fontColor=default;fillColor=default;" vertex="1" parent="1">
          <mxGeometry x="30" y="280" width="140" height="20" as="geometry" />
        </mxCell>
        <mxCell id="CoB3a_p92tAadd6meq5U-57" value="Hide()" style="rounded=0;whiteSpace=wrap;html=1;strokeColor=default;align=center;verticalAlign=middle;fontFamily=Helvetica;fontSize=12;fontColor=default;fillColor=default;" vertex="1" parent="1">
          <mxGeometry x="230" y="670" width="140" height="20" as="geometry" />
        </mxCell>
        <mxCell id="CoB3a_p92tAadd6meq5U-58" value="Hide()" style="rounded=0;whiteSpace=wrap;html=1;strokeColor=default;align=center;verticalAlign=middle;fontFamily=Helvetica;fontSize=12;fontColor=default;fillColor=default;" vertex="1" parent="1">
          <mxGeometry x="635" y="710" width="140" height="20" as="geometry" />
        </mxCell>
        <mxCell id="CoB3a_p92tAadd6meq5U-59" value="BMAS(EditOptions)" style="rounded=0;whiteSpace=wrap;html=1;strokeColor=default;align=center;verticalAlign=middle;fontFamily=Helvetica;fontSize=12;fontColor=default;fillColor=default;" vertex="1" parent="1">
          <mxGeometry x="635" y="620" width="140" height="20" as="geometry" />
        </mxCell>
        <mxCell id="CoB3a_p92tAadd6meq5U-60" value="Hide()" style="rounded=0;whiteSpace=wrap;html=1;strokeColor=default;align=center;verticalAlign=middle;fontFamily=Helvetica;fontSize=12;fontColor=default;fillColor=default;" vertex="1" parent="1">
          <mxGeometry x="635" y="640" width="140" height="20" as="geometry" />
        </mxCell>
        <mxCell id="CoB3a_p92tAadd6meq5U-61" value="Hide()" style="rounded=0;whiteSpace=wrap;html=1;strokeColor=default;align=center;verticalAlign=middle;fontFamily=Helvetica;fontSize=12;fontColor=default;fillColor=default;" vertex="1" parent="1">
          <mxGeometry x="635" y="570" width="140" height="20" as="geometry" />
        </mxCell>
        <mxCell id="CoB3a_p92tAadd6meq5U-62" value="BMAS(LevelResume)" style="rounded=0;whiteSpace=wrap;html=1;" vertex="1" parent="1">
          <mxGeometry x="635" y="550" width="140" height="20" as="geometry" />
        </mxCell>
        <mxCell id="CoB3a_p92tAadd6meq5U-64" value="Current Level" style="rounded=1;whiteSpace=wrap;html=1;" vertex="1" parent="1">
          <mxGeometry x="600" y="120" width="120" height="60" as="geometry" />
        </mxCell>
        <mxCell id="CoB3a_p92tAadd6meq5U-65" value="BMAS(LevelPaused)" style="rounded=0;whiteSpace=wrap;html=1;" vertex="1" parent="1">
          <mxGeometry x="640" y="240" width="140" height="20" as="geometry" />
        </mxCell>
        <mxCell id="CoB3a_p92tAadd6meq5U-66" value="Pause()" style="rounded=0;whiteSpace=wrap;html=1;" vertex="1" parent="1">
          <mxGeometry x="640" y="220" width="140" height="20" as="geometry" />
        </mxCell>
        <mxCell id="CoB3a_p92tAadd6meq5U-67" value="LevelResume()" style="shape=step;perimeter=stepPerimeter;whiteSpace=wrap;html=1;fixedSize=1;" vertex="1" parent="1">
          <mxGeometry x="600" y="270" width="120" height="20" as="geometry" />
        </mxCell>
        <mxCell id="CoB3a_p92tAadd6meq5U-68" value="Resume()" style="rounded=0;whiteSpace=wrap;html=1;" vertex="1" parent="1">
          <mxGeometry x="630" y="290" width="140" height="20" as="geometry" />
        </mxCell>
        <mxCell id="CoB3a_p92tAadd6meq5U-69" value="BMAS(LevelResumed)" style="rounded=0;whiteSpace=wrap;html=1;" vertex="1" parent="1">
          <mxGeometry x="630" y="310" width="140" height="20" as="geometry" />
        </mxCell>
        <mxCell id="CoB3a_p92tAadd6meq5U-70" value="" style="endArrow=classic;html=1;rounded=0;entryX=0;entryY=0.5;entryDx=0;entryDy=0;edgeStyle=orthogonalEdgeStyle;curved=1;exitX=1;exitY=0.5;exitDx=0;exitDy=0;" edge="1" parent="1" source="CoB3a_p92tAadd6meq5U-24" target="CoB3a_p92tAadd6meq5U-42">
          <mxGeometry width="50" height="50" relative="1" as="geometry">
            <mxPoint x="570" y="400" as="sourcePoint" />
            <mxPoint x="420" y="350" as="targetPoint" />
            <Array as="points">
              <mxPoint x="580" y="560" />
              <mxPoint x="580" y="400" />
              <mxPoint x="510" y="400" />
              <mxPoint x="510" y="210" />
            </Array>
          </mxGeometry>
        </mxCell>
        <mxCell id="CoB3a_p92tAadd6meq5U-73" value="" style="endArrow=classic;html=1;rounded=0;exitX=1;exitY=0.5;exitDx=0;exitDy=0;entryX=0;entryY=0.5;entryDx=0;entryDy=0;edgeStyle=orthogonalEdgeStyle;curved=1;" edge="1" parent="1" source="CoB3a_p92tAadd6meq5U-62" target="CoB3a_p92tAadd6meq5U-67">
          <mxGeometry width="50" height="50" relative="1" as="geometry">
            <mxPoint x="370" y="400" as="sourcePoint" />
            <mxPoint x="420" y="350" as="targetPoint" />
            <Array as="points">
              <mxPoint x="785" y="560" />
              <mxPoint x="785" y="380" />
              <mxPoint x="570" y="380" />
              <mxPoint x="570" y="280" />
            </Array>
          </mxGeometry>
        </mxCell>
      </root>
    </mxGraphModel>
  </diagram>
</mxfile>
